<?xml version="1.0" encoding="UTF-8"?>
<svg id="Rounded" xmlns="http://www.w3.org/2000/svg" xmlns:xlink="http://www.w3.org/1999/xlink" viewBox="0 0 24 24">
  <defs>
    <style>
      .cls-1, .cls-2 {
        fill: #00aef3;
      }

      .cls-1, .cls-3 {
        stroke: #fff;
        stroke-linecap: round;
        stroke-linejoin: round;
        stroke-width: 2px;
      }

      .cls-4 {
        clip-path: url(#clippath-2);
      }

      .cls-5 {
        fill: none;
      }

      .cls-5, .cls-6, .cls-2 {
        stroke-width: 0px;
      }

      .cls-7 {
        clip-path: url(#clippath-1);
      }

      .cls-8 {
        clip-path: url(#clippath-4);
      }

      .cls-6, .cls-3 {
        fill: #e81b23;
      }

      .cls-9 {
        clip-path: url(#clippath);
      }

      .cls-10 {
        clip-path: url(#clippath-3);
      }
    </style>
    <clipPath id="clippath">
      <rect class="cls-5" width="24" height="24" rx="4.26" ry="4.26"/>
    </clipPath>
    <clipPath id="clippath-1">
      <rect class="cls-5" x="9.25" y="-14.16" width="18" height="39.3" transform="translate(1.46 14.52) rotate(-45)"/>
    </clipPath>
    <clipPath id="clippath-2">
      <rect class="cls-5" x="9.25" y="-14.16" width="18" height="39.3" transform="translate(1.46 14.52) rotate(-45)"/>
    </clipPath>
    <clipPath id="clippath-3">
      <rect class="cls-5" x="-3.45" y="-1.46" width="18" height="39.3" transform="translate(-11.23 9.25) rotate(-45)"/>
    </clipPath>
    <clipPath id="clippath-4">
      <rect class="cls-5" x="-3.45" y="-1.46" width="18" height="39.3" transform="translate(-11.23 9.25) rotate(-45)"/>
    </clipPath>
  </defs>
  <g class="cls-9">
    <g>
      <rect id="SVGID" class="cls-6" x="9.25" y="-14.16" width="18" height="39.3" transform="translate(1.46 14.52) rotate(-45)"/>
      <g class="cls-7">
        <path class="cls-3" d="m20,10c0,5-5.5,10.2-7.4,11.8-.4.3-.8.3-1.2,0-1.9-1.6-7.4-6.8-7.4-11.8,0-4.4,3.6-8,8-8s8,3.6,8,8"/>
      </g>
      <g class="cls-4">
        <circle class="cls-3" cx="12" cy="10" r="3"/>
      </g>
    </g>
    <g>
      <rect id="SVGID-2" data-name="SVGID" class="cls-2" x="-3.45" y="-1.46" width="18" height="39.3" transform="translate(-11.23 9.25) rotate(-45)"/>
      <g class="cls-10">
        <path class="cls-1" d="m20,10c0,5-5.5,10.2-7.4,11.8-.4.3-.8.3-1.2,0-1.9-1.6-7.4-6.8-7.4-11.8C4,5.6,7.6,2,12,2s8,3.6,8,8"/>
      </g>
      <g class="cls-8">
        <circle class="cls-1" cx="12" cy="10" r="3"/>
      </g>
    </g>
  </g>
</svg>